# xmcd
#
# Track frame offsets:
#	150
#	25296
#	61245
#	144371
#	171608
#	207024
#	282280
#	317125
#
# Disc length: 4414 seconds
#
# Revision: 1
# Processed by: cddbd v1.5.1PL0 Copyright (c) Steve Scherf et al.
# Submitted via: audiograbber 1.83.01
#
DISCID=74113c08
DTITLE=John Butler Trio - Living 2001 - 2002 Disc 1
DYEAR=2001
DGENRE=
TTITLE0=01 Attitude
TTITLE1=02 Pickapart
TTITLE2=03 Valley
TTITLE3=04 Spring
TTITLE4=05 Crazy
TTITLE5=06 Colours
TTITLE6=07 Treat Your Mama
TTITLE7=08 Track 8
EXTD=
EXTT0=
EXTT1=
EXTT2=
EXTT3=
EXTT4=
EXTT5=
EXTT6=
EXTT7=
PLAYORDER=
